<mxfile host="Electron" agent="Mozilla/5.0 (Windows NT 10.0; Win64; x64) AppleWebKit/537.36 (KHTML, like Gecko) draw.io/27.0.5 Chrome/134.0.6998.205 Electron/35.3.0 Safari/537.36" version="27.0.5">
  <diagram name="Flowcart LV1" id="nzLbcHEeCP3UQgizT8pA">
    <mxGraphModel dx="872" dy="581" grid="1" gridSize="10" guides="1" tooltips="1" connect="1" arrows="1" fold="1" page="1" pageScale="1" pageWidth="850" pageHeight="1100" math="0" shadow="0">
      <root>
        <mxCell id="0" />
        <mxCell id="1" parent="0" />
        <mxCell id="uNp05lN887lCnhegSADc-3" value="" style="edgeStyle=orthogonalEdgeStyle;rounded=0;orthogonalLoop=1;jettySize=auto;html=1;" parent="1" source="uNp05lN887lCnhegSADc-1" target="uNp05lN887lCnhegSADc-2" edge="1">
          <mxGeometry relative="1" as="geometry" />
        </mxCell>
        <mxCell id="uNp05lN887lCnhegSADc-1" value="START" style="ellipse;whiteSpace=wrap;html=1;" parent="1" vertex="1">
          <mxGeometry x="70" y="40" width="120" height="80" as="geometry" />
        </mxCell>
        <mxCell id="uNp05lN887lCnhegSADc-5" value="" style="edgeStyle=orthogonalEdgeStyle;rounded=0;orthogonalLoop=1;jettySize=auto;html=1;" parent="1" source="uNp05lN887lCnhegSADc-2" target="uNp05lN887lCnhegSADc-4" edge="1">
          <mxGeometry relative="1" as="geometry" />
        </mxCell>
        <mxCell id="uNp05lN887lCnhegSADc-8" value="" style="edgeStyle=orthogonalEdgeStyle;rounded=0;orthogonalLoop=1;jettySize=auto;html=1;" parent="1" source="uNp05lN887lCnhegSADc-2" target="uNp05lN887lCnhegSADc-7" edge="1">
          <mxGeometry relative="1" as="geometry" />
        </mxCell>
        <mxCell id="uNp05lN887lCnhegSADc-2" value="LANDING PAGE" style="whiteSpace=wrap;html=1;" parent="1" vertex="1">
          <mxGeometry x="70" y="210" width="120" height="60" as="geometry" />
        </mxCell>
        <mxCell id="uNp05lN887lCnhegSADc-10" value="" style="edgeStyle=orthogonalEdgeStyle;rounded=0;orthogonalLoop=1;jettySize=auto;html=1;" parent="1" source="uNp05lN887lCnhegSADc-4" target="uNp05lN887lCnhegSADc-9" edge="1">
          <mxGeometry relative="1" as="geometry" />
        </mxCell>
        <mxCell id="uNp05lN887lCnhegSADc-19" value="" style="edgeStyle=orthogonalEdgeStyle;rounded=0;orthogonalLoop=1;jettySize=auto;html=1;" parent="1" source="uNp05lN887lCnhegSADc-4" target="uNp05lN887lCnhegSADc-18" edge="1">
          <mxGeometry relative="1" as="geometry" />
        </mxCell>
        <mxCell id="uNp05lN887lCnhegSADc-4" value="LOGIN" style="whiteSpace=wrap;html=1;" parent="1" vertex="1">
          <mxGeometry x="270" y="210" width="120" height="60" as="geometry" />
        </mxCell>
        <mxCell id="uNp05lN887lCnhegSADc-14" value="" style="edgeStyle=orthogonalEdgeStyle;rounded=0;orthogonalLoop=1;jettySize=auto;html=1;" parent="1" source="uNp05lN887lCnhegSADc-7" target="uNp05lN887lCnhegSADc-13" edge="1">
          <mxGeometry relative="1" as="geometry" />
        </mxCell>
        <mxCell id="uNp05lN887lCnhegSADc-7" value="FORGOT PASSWORD" style="whiteSpace=wrap;html=1;" parent="1" vertex="1">
          <mxGeometry x="70" y="350" width="120" height="60" as="geometry" />
        </mxCell>
        <mxCell id="uNp05lN887lCnhegSADc-12" value="" style="edgeStyle=orthogonalEdgeStyle;rounded=0;orthogonalLoop=1;jettySize=auto;html=1;" parent="1" source="uNp05lN887lCnhegSADc-9" target="uNp05lN887lCnhegSADc-11" edge="1">
          <mxGeometry relative="1" as="geometry" />
        </mxCell>
        <mxCell id="uNp05lN887lCnhegSADc-9" value="CHECK" style="rhombus;whiteSpace=wrap;html=1;" parent="1" vertex="1">
          <mxGeometry x="490" y="200" width="80" height="80" as="geometry" />
        </mxCell>
        <mxCell id="C4340B2FHTjSiRDeG6CE-2" value="" style="edgeStyle=none;rounded=0;orthogonalLoop=1;jettySize=auto;html=1;" parent="1" source="uNp05lN887lCnhegSADc-11" target="C4340B2FHTjSiRDeG6CE-1" edge="1">
          <mxGeometry relative="1" as="geometry" />
        </mxCell>
        <mxCell id="uNp05lN887lCnhegSADc-11" value="DASHBOARD" style="whiteSpace=wrap;html=1;" parent="1" vertex="1">
          <mxGeometry x="470" y="370" width="120" height="60" as="geometry" />
        </mxCell>
        <mxCell id="uNp05lN887lCnhegSADc-16" value="" style="edgeStyle=orthogonalEdgeStyle;rounded=0;orthogonalLoop=1;jettySize=auto;html=1;" parent="1" source="uNp05lN887lCnhegSADc-13" target="uNp05lN887lCnhegSADc-15" edge="1">
          <mxGeometry relative="1" as="geometry" />
        </mxCell>
        <mxCell id="uNp05lN887lCnhegSADc-13" value="MAIL KONFIMASI" style="shape=document;whiteSpace=wrap;html=1;boundedLbl=1;" parent="1" vertex="1">
          <mxGeometry x="70" y="480" width="120" height="80" as="geometry" />
        </mxCell>
        <mxCell id="uNp05lN887lCnhegSADc-17" style="edgeStyle=orthogonalEdgeStyle;rounded=0;orthogonalLoop=1;jettySize=auto;html=1;entryX=0.5;entryY=1;entryDx=0;entryDy=0;" parent="1" source="uNp05lN887lCnhegSADc-15" target="uNp05lN887lCnhegSADc-4" edge="1">
          <mxGeometry relative="1" as="geometry" />
        </mxCell>
        <mxCell id="uNp05lN887lCnhegSADc-15" value="RESET PASSWORD" style="whiteSpace=wrap;html=1;" parent="1" vertex="1">
          <mxGeometry x="270" y="490" width="120" height="60" as="geometry" />
        </mxCell>
        <mxCell id="uNp05lN887lCnhegSADc-21" value="" style="edgeStyle=orthogonalEdgeStyle;rounded=0;orthogonalLoop=1;jettySize=auto;html=1;entryX=0;entryY=0.5;entryDx=0;entryDy=0;" parent="1" source="uNp05lN887lCnhegSADc-18" target="uNp05lN887lCnhegSADc-24" edge="1">
          <mxGeometry relative="1" as="geometry">
            <mxPoint x="430" y="100" as="targetPoint" />
          </mxGeometry>
        </mxCell>
        <mxCell id="uNp05lN887lCnhegSADc-18" value="REMEMBER ME" style="rhombus;whiteSpace=wrap;html=1;" parent="1" vertex="1">
          <mxGeometry x="290" y="60" width="80" height="80" as="geometry" />
        </mxCell>
        <mxCell id="uNp05lN887lCnhegSADc-23" style="edgeStyle=orthogonalEdgeStyle;rounded=0;orthogonalLoop=1;jettySize=auto;html=1;entryX=0.5;entryY=0;entryDx=0;entryDy=0;" parent="1" source="uNp05lN887lCnhegSADc-24" target="uNp05lN887lCnhegSADc-9" edge="1">
          <mxGeometry relative="1" as="geometry">
            <mxPoint x="490" y="130" as="sourcePoint" />
          </mxGeometry>
        </mxCell>
        <mxCell id="uNp05lN887lCnhegSADc-24" value="SAVE SESSION" style="shape=process;whiteSpace=wrap;html=1;backgroundOutline=1;" parent="1" vertex="1">
          <mxGeometry x="470" y="70" width="120" height="60" as="geometry" />
        </mxCell>
        <mxCell id="C4340B2FHTjSiRDeG6CE-4" value="" style="edgeStyle=none;rounded=0;orthogonalLoop=1;jettySize=auto;html=1;" parent="1" source="C4340B2FHTjSiRDeG6CE-1" target="C4340B2FHTjSiRDeG6CE-3" edge="1">
          <mxGeometry relative="1" as="geometry" />
        </mxCell>
        <mxCell id="kRYZdN3vBwCKH4Jll4WC-2" value="" style="edgeStyle=orthogonalEdgeStyle;rounded=0;orthogonalLoop=1;jettySize=auto;html=1;" edge="1" parent="1" source="C4340B2FHTjSiRDeG6CE-1" target="kRYZdN3vBwCKH4Jll4WC-1">
          <mxGeometry relative="1" as="geometry" />
        </mxCell>
        <mxCell id="C4340B2FHTjSiRDeG6CE-1" value="MENU MODUL" style="whiteSpace=wrap;html=1;" parent="1" vertex="1">
          <mxGeometry x="670" y="370" width="120" height="60" as="geometry" />
        </mxCell>
        <mxCell id="C4340B2FHTjSiRDeG6CE-6" value="" style="edgeStyle=none;rounded=0;orthogonalLoop=1;jettySize=auto;html=1;" parent="1" source="C4340B2FHTjSiRDeG6CE-3" target="C4340B2FHTjSiRDeG6CE-5" edge="1">
          <mxGeometry relative="1" as="geometry" />
        </mxCell>
        <mxCell id="C4340B2FHTjSiRDeG6CE-8" value="" style="edgeStyle=none;rounded=0;orthogonalLoop=1;jettySize=auto;html=1;" parent="1" source="C4340B2FHTjSiRDeG6CE-3" target="C4340B2FHTjSiRDeG6CE-7" edge="1">
          <mxGeometry relative="1" as="geometry" />
        </mxCell>
        <mxCell id="C4340B2FHTjSiRDeG6CE-3" value="MENU PROFILE" style="whiteSpace=wrap;html=1;" parent="1" vertex="1">
          <mxGeometry x="670" y="510" width="120" height="60" as="geometry" />
        </mxCell>
        <mxCell id="C4340B2FHTjSiRDeG6CE-5" value="MENU LOGOUT" style="whiteSpace=wrap;html=1;" parent="1" vertex="1">
          <mxGeometry x="670" y="650" width="120" height="60" as="geometry" />
        </mxCell>
        <mxCell id="C4340B2FHTjSiRDeG6CE-10" value="" style="edgeStyle=none;rounded=0;orthogonalLoop=1;jettySize=auto;html=1;" parent="1" source="C4340B2FHTjSiRDeG6CE-7" target="C4340B2FHTjSiRDeG6CE-9" edge="1">
          <mxGeometry relative="1" as="geometry" />
        </mxCell>
        <mxCell id="C4340B2FHTjSiRDeG6CE-7" value="UPDATE PROFILE" style="whiteSpace=wrap;html=1;" parent="1" vertex="1">
          <mxGeometry x="870" y="510" width="120" height="60" as="geometry" />
        </mxCell>
        <mxCell id="C4340B2FHTjSiRDeG6CE-12" value="" style="edgeStyle=none;rounded=0;orthogonalLoop=1;jettySize=auto;html=1;" parent="1" source="C4340B2FHTjSiRDeG6CE-9" target="C4340B2FHTjSiRDeG6CE-11" edge="1">
          <mxGeometry relative="1" as="geometry" />
        </mxCell>
        <mxCell id="C4340B2FHTjSiRDeG6CE-9" value="DELETE PROFILE&amp;nbsp;" style="whiteSpace=wrap;html=1;" parent="1" vertex="1">
          <mxGeometry x="1070" y="510" width="120" height="60" as="geometry" />
        </mxCell>
        <mxCell id="C4340B2FHTjSiRDeG6CE-11" value="GANTI PASSWORD" style="whiteSpace=wrap;html=1;" parent="1" vertex="1">
          <mxGeometry x="1270" y="510" width="120" height="60" as="geometry" />
        </mxCell>
        <mxCell id="kRYZdN3vBwCKH4Jll4WC-1" value="LIVE CHAT" style="whiteSpace=wrap;html=1;" vertex="1" parent="1">
          <mxGeometry x="870" y="370" width="120" height="60" as="geometry" />
        </mxCell>
      </root>
    </mxGraphModel>
  </diagram>
</mxfile>
